# xmcd
#
# Track frame offsets:
# 150
# 19792
# 36985
# 54010
# 74002
# 91234
# 106220
# 128017
# 150311
# 167033
# 185496
# 196730
# 202558
#
# Disc length: 2890 seconds
#
#
# Revision: 0
# Processed by: cddbd v1.4PL0 Copyright (c) Steve Scherf et al.
# Submitted via: FreeRIP 2.00 
#
DISCID=9a0b480d
DTITLE=Steve Grace - New Day Coming
DYEAR=2003
DGENRE=Christian Rock
TTITLE0=New Day Coming
TTITLE1=Turn Turn
TTITLE2=Change This World
TTITLE3=Outback Skies
TTITLE4=Thinking About You
TTITLE5=A Driving Song
TTITLE6=In All My Ways
TTITLE7=Arms of Liberty
TTITLE8=Saints Of Sudan
TTITLE9=Every Town
TTITLE10=Right Here With Me
TTITLE11=One Day Soon
TTITLE12=Making A Difference
EXTD=
EXTT0=
EXTT1=
EXTT2=
EXTT3=
EXTT4=
EXTT5=
EXTT6=
EXTT7=
EXTT8=
EXTT9=
EXTT10=
EXTT11=
EXTT12=
PLAYORDER=
